<svg width="128" height="128" viewBox="0 0 128 128" fill="none" xmlns="http://www.w3.org/2000/svg">
<path d="M23.608 108.804L14.624 8H113.376L104.38 108.788L63.94 120L23.608 108.804Z" fill="#1572B6"/>
<path d="M64 111.432L96.68 102.372L104.368 16.244H64V111.432Z" fill="#33A9DC"/>
<path d="M64 52.764H80.36L81.488 40.104H64V27.74H95L94.704 31.056L91.668 65.128H64V52.764Z" fill="white"/>
<path d="M64.076 84.872L64.02 84.888L50.252 81.168L49.372 71.308H36.96L38.692 90.72L64.016 97.752L64.076 97.736V84.872Z" fill="#EBEBEB"/>
<path d="M79.308 64.604L77.82 81.16L64.032 84.88V97.744L89.376 90.72L89.564 88.632L91.712 64.604H79.308Z" fill="white"/>
<path d="M64.044 27.74V40.104H34.18L33.932 37.324L33.368 31.056L33.072 27.74H64.044ZM64 52.764V65.128H50.404L50.156 62.348L49.596 56.08L49.3 52.764H64Z" fill="#EBEBEB"/>
</svg>
