<svg width="309" height="315" viewBox="0 0 309 315" fill="none" xmlns="http://www.w3.org/2000/svg">
<path d="M298.638 230.605C301.846 230.605 304.313 232.086 306.04 235.047C308.013 238.008 309 242.08 309 247.262C309 256.886 306.656 264.536 301.969 270.212C288.153 286.745 274.708 298.343 261.632 305.006C248.804 311.669 233.261 315 215.005 315C202.176 315 190.334 313.396 179.479 310.188C168.624 306.98 155.425 302.168 139.883 295.752C126.56 290.076 114.719 285.511 104.357 282.056C93.0084 294.395 82.7701 303.032 73.6419 307.967C64.5138 312.656 54.8922 315 44.7772 315C31.2084 315 20.3533 311.915 12.212 305.746C4.07066 299.33 0 291.063 0 280.946C0 273.296 2.46707 266.263 7.4012 259.847C12.582 253.431 19.7365 248.373 28.8647 244.671C37.9928 240.969 48.6012 239.119 60.6898 239.119C67.5976 239.119 72.7784 239.242 76.2323 239.489C124.587 179.277 168.254 115.734 207.234 48.8602C186.017 45.1586 164.43 43.3079 142.473 43.3079C114.102 43.3079 93.2551 46.6392 79.9329 53.302C66.8575 59.718 60.3198 69.9589 60.3198 84.0247C60.3198 88.2197 60.8132 91.7979 61.8 94.7591C62.7868 97.7203 64.2671 101.175 66.2407 105.123C68.4611 109.565 69.5713 112.773 69.5713 114.747C69.5713 119.683 67.2275 123.878 62.5401 127.333C58.0994 130.541 52.9186 132.145 46.9976 132.145C40.8299 132.145 35.7725 130.294 31.8252 126.592C27.1377 122.397 23.3138 116.722 20.3533 109.565C17.6395 102.162 16.2826 93.8954 16.2826 84.765C16.2826 55.8931 28.2479 34.5476 52.1784 20.7286C76.109 6.90952 107.687 0 146.914 0C166.404 0 186.263 1.11046 206.493 3.33138C226.97 5.55228 246.09 9.13042 263.853 14.0658C271.254 16.04 276.188 18.8778 278.655 22.5793C281.122 26.0341 282.356 30.5993 282.356 36.275C282.356 42.9377 280.629 48.1199 277.175 51.8214C273.721 55.5229 268.91 57.3737 262.743 57.3737H260.152C233.508 100.805 206.493 142.509 179.109 182.485C157.152 214.318 141.733 235.911 132.852 247.262C147.16 250.47 159.619 253.431 170.228 256.146C183.303 259.6 193.788 262.192 201.683 263.919C209.824 265.4 216.855 266.14 222.776 266.14C237.085 266.14 249.297 263.796 259.412 259.107C269.774 254.172 279.519 246.398 288.647 235.787C291.607 232.333 294.938 230.605 298.638 230.605Z" fill="white"/>
</svg>
