<svg width="128" height="128" viewBox="0 0 128 128" fill="none" xmlns="http://www.w3.org/2000/svg">
<path d="M23.608 108.804L14.62 8H113.38L104.38 108.788L63.94 120L23.608 108.804Z" fill="#E44F26"/>
<path d="M64 111.432L96.68 102.372L104.368 16.244H64V111.432Z" fill="#F1662A"/>
<path d="M64 53.628H47.64L46.512 40.968H64V28.604H33L33.296 31.924L36.332 65.992H64V53.628ZM64 85.736L63.944 85.752L50.176 82.036L49.296 72.176H36.884L38.616 91.584L63.944 98.616L64 98.6V85.736Z" fill="#EBEBEB"/>
<path d="M63.956 53.628V65.992H79.18L77.748 82.028L63.956 85.748V98.612L89.304 91.584L89.488 89.496L92.392 56.948L92.696 53.628H63.956ZM63.956 28.604V40.968H93.82L94.068 38.192L94.632 31.924L94.928 28.604H63.956Z" fill="white"/>
</svg>
