<svg width="129" height="128" viewBox="0 0 129 128" fill="none" xmlns="http://www.w3.org/2000/svg">
<path d="M8.0625 64C8.0625 33.0721 33.5721 8 64.5 8C95.4279 8 120.938 33.0721 120.938 64C120.938 94.9279 95.4279 120 64.5 120C33.5721 120 8.0625 94.9279 8.0625 64Z" fill="#F5DE19"/>
<path d="M84.5057 93.3807C85.1004 94.5622 86.0242 95.5553 87.1707 96.2456C88.3173 96.9358 89.6398 97.295 90.986 97.2818C93.7028 97.2818 95.44 95.953 95.44 94.1121C95.44 91.9177 93.6554 91.1326 90.6645 89.8526L89.0245 89.165C84.2889 87.1925 81.1485 84.7225 81.1485 79.4999C81.1485 74.6893 84.8871 71.0246 90.7517 71.0246C92.6502 70.8905 94.5471 71.3062 96.2056 72.2198C97.8642 73.1333 99.2111 74.5044 100.078 76.162L94.9515 79.3682C94.6175 78.5463 94.0361 77.8432 93.2843 77.352C92.5324 76.8608 91.6457 76.6048 90.7418 76.6179C90.3474 76.5793 89.9491 76.6215 89.5723 76.7417C89.1954 76.862 88.8484 77.0578 88.5532 77.3165C88.2579 77.5752 88.0211 77.8913 87.8576 78.2446C87.6942 78.5978 87.6077 78.9805 87.6038 79.3682C87.6038 81.292 88.8226 82.0722 91.6365 83.2694L93.2766 83.9569C98.8496 86.2952 102 88.6773 102 94.0341C102 99.8102 97.3616 102.975 91.1331 102.975C88.7062 103.126 86.2865 102.587 84.1658 101.423C82.0452 100.259 80.3143 98.5191 79.1819 96.4138L84.5057 93.3807ZM61.3388 93.9366C62.3681 95.7238 63.3053 97.2355 65.5584 97.2355C67.7119 97.2355 69.0727 96.4114 69.0727 93.2051V71.3904H75.6303V93.2904C75.6303 99.9322 71.6424 102.956 65.8376 102.956C63.7857 103.065 61.7479 102.565 59.9921 101.521C58.2362 100.476 56.8446 98.9365 56 97.1038L61.3388 93.9366Z" fill="black"/>
</svg>
