<svg id="visual" viewBox="0 0 900 600" width="900" height="600" xmlns="http://www.w3.org/2000/svg" xmlns:xlink="http://www.w3.org/1999/xlink" version="1.1"><path d="M0 61L11.5 61C23 61 46 61 69 65C92 69 115 77 138.2 73.3C161.3 69.7 184.7 54.3 207.8 45.7C231 37 254 35 277 42.7C300 50.3 323 67.7 346 71.7C369 75.7 392 66.3 415.2 65.2C438.3 64 461.7 71 484.8 76.2C508 81.3 531 84.7 554 80.2C577 75.7 600 63.3 623 55.7C646 48 669 45 692.2 47.5C715.3 50 738.7 58 761.8 56C785 54 808 42 831 44C854 46 877 62 888.5 70L900 78L900 0L888.5 0C877 0 854 0 831 0C808 0 785 0 761.8 0C738.7 0 715.3 0 692.2 0C669 0 646 0 623 0C600 0 577 0 554 0C531 0 508 0 484.8 0C461.7 0 438.3 0 415.2 0C392 0 369 0 346 0C323 0 300 0 277 0C254 0 231 0 207.8 0C184.7 0 161.3 0 138.2 0C115 0 92 0 69 0C46 0 23 0 11.5 0L0 0Z" fill="#00087a" stroke-linecap="round" stroke-linejoin="miter"></path></svg>