<svg width="960" height="97" viewBox="0 0 960 97" fill="none" xmlns="http://www.w3.org/2000/svg">
  <path d="M0 94L8.8 94.2C17.7 94.3 35.3 94.7 53.2 95.7C71 96.7 89 98.3 106.8 92C124.7 85.7 142.3 71.3 160 71.7C177.7 72 195.3 87 213.2 91.2C231 95.3 249 88.7 266.8 88C284.7 87.3 302.3 92.7 320 88.7C337.7 84.7 355.3 71.3 373.2 70.3C391 69.3 409 80.7 426.8 84.8C444.7 89 462.3 86 480 87.5C497.7 89 515.3 95 533.2 93.3C551 91.7 569 82.3 586.8 79.8C604.7 77.3 622.3 81.7 640 80.7C657.7 79.7 675.3 73.3 693.2 75.5C711 77.7 729 88.3 746.8 90.8C764.7 93.3 782.3 87.7 800 83C817.7 78.3 835.3 74.7 853.2 74.7C871 74.7 889 78.3 906.8 79.8C924.7 81.3 942.3 80.7 951.2 80.3L960 80V0H951.2C942.3 0 924.7 0 906.8 0C889 0 871 0 853.2 0C835.3 0 817.7 0 800 0C782.3 0 764.7 0 746.8 0C729 0 711 0 693.2 0C675.3 0 657.7 0 640 0C622.3 0 604.7 0 586.8 0C569 0 551 0 533.2 0C515.3 0 497.7 0 480 0C462.3 0 444.7 0 426.8 0C409 0 391 0 373.2 0C355.3 0 337.7 0 320 0C302.3 0 284.7 0 266.8 0C249 0 231 0 213.2 0C195.3 0 177.7 0 160 0C142.3 0 124.7 0 106.8 0C89 0 71 0 53.2 0C35.3 0 17.7 0 8.8 0H0V94Z" fill="url(#paint0_linear_8_3)"/>
  <defs>
    <linearGradient id="paint0_linear_8_3" x1="0" y1="47.9999" x2="960" y2="47.9999" gradientUnits="userSpaceOnUse">
      <stop offset="0" style="stop-color: rgb(8, 8, 65)"/>
      <stop offset="0.78" style="stop-color: rgba(102, 0, 255, 1)"/>
      <stop offset="1" style="stop-color: rgba(0, 212, 255, 1)"/>
    </linearGradient>
  </defs>
</svg>
